<svg width="153" height="165" fill="none" xmlns="http://www.w3.org/2000/svg">
<path fill-rule="evenodd" clip-rule="evenodd" d="M0 61.2706L1.98712 60.6039C18.617 55.0241 29.8951 49.1175 37.2852 40.3648C44.6398 31.6539 48.376 19.8392 49.2457 1.90314L49.3379 0H119.683V159.1H75.6433V44.1412C73.4028 52.7677 70.1459 60.7114 65.2403 67.866C55.9695 81.3871 40.9966 91.8314 16.6043 98.9597L14.8435 99.4743L0 61.2706ZM75.6433 34.6937C76.5035 29.8672 77.1389 24.833 77.6433 19.6V157.1H117.683V2H51.2433C49.5169 37.6064 36.5719 50.7755 4.51828 61.8548C3.89389 62.0706 3.26226 62.2856 2.62331 62.5L16.0433 97.04C57.3195 84.9775 70.5002 63.5499 75.6433 34.6937Z" fill="url(#paint0_radial_3192_2728)"/>
<defs>
<radialGradient id="paint0_radial_3192_2728" cx="0" cy="0" r="1" gradientUnits="userSpaceOnUse" gradientTransform="translate(119.683 -1.8412e-05) rotate(126.952) scale(199.09 385.609)">
<stop stop-color="#00F0FF"/>
<stop offset="0.453125" stop-color="#BD00FF"/>
<stop offset="1" stop-color="#0500FF"/>
</radialGradient>
</defs>
</svg>
