<svg width="153" height="165" fill="none" xmlns="http://www.w3.org/2000/svg">
<path fill-rule="evenodd" clip-rule="evenodd" d="M0 77.04V75.04C0 48.7457 8.35313 29.8872 22.2655 17.6317C36.1342 5.41475 55.2549 0 76.36 0C95.8947 0 112.557 4.62918 124.379 13.9895C136.266 23.4012 143.04 37.4262 143.04 55.68C143.04 68.1281 139.562 78.259 133.18 86.5674C126.824 94.8417 117.687 101.183 106.56 106.257C89.842 113.881 68.3195 118.776 44.2589 122.98H143.04V162.18H2.2V91.2189L4.0563 91.0852C29.9785 89.2179 54.0252 85.8758 71.5405 79.965C80.302 77.0083 87.2796 73.4571 92.0361 69.2457C96.7461 65.0755 99.22 60.3218 99.22 54.8C99.22 51.1228 98.1363 47.2763 94.8723 44.3198C91.5789 41.3366 85.7599 38.98 75.7 38.98C63.8127 38.98 56.0773 42.0255 51.238 47.7334C46.3341 53.5174 44.04 62.4477 44.04 75.04V77.04H0ZM19.6 124.98C23.8578 124.316 28.06 123.653 32.1968 122.98C93.8942 112.944 141.04 100.833 141.04 55.68C141.04 20.26 114.86 2 76.36 2C35.3203 2 2.85337 22.789 2.01655 73.04C2.00553 73.7016 2 74.3682 2 75.04H42.04C42.04 49.52 51.28 36.98 75.7 36.98C96.38 36.98 101.22 46.66 101.22 54.8C101.22 79.66 56.12 89.34 4.2 93.08V160.18H141.04V124.98H19.6Z" fill="url(#paint0_radial_3192_2729)"/>
<defs>
<radialGradient id="paint0_radial_3192_2729" cx="0" cy="0" r="1" gradientUnits="userSpaceOnUse" gradientTransform="translate(143.04 -1.87684e-05) rotate(131.412) scale(216.247 432.512)">
<stop stop-color="#00F0FF"/>
<stop offset="0.453125" stop-color="#BD00FF"/>
<stop offset="1" stop-color="#0500FF"/>
</radialGradient>
</defs>
</svg>
