<svg width="153" height="165" fill="none" xmlns="http://www.w3.org/2000/svg">
<path fill-rule="evenodd" clip-rule="evenodd" d="M44.04 99V101C44.04 112.049 46.7177 118.015 51.4532 121.401C56.3831 124.925 64.0336 126.06 75.04 126.06C85.0026 126.06 92.3138 125.06 97.0799 122.766C99.4199 121.639 101.075 120.233 102.157 118.538C103.238 116.845 103.84 114.72 103.84 112C103.84 107.957 102.278 104.809 99.5128 102.624C96.6941 100.398 92.448 99.04 86.92 99.04H63.36V62.7H86.92C92.5365 62.7 96.2066 61.579 98.4346 59.8686C100.57 58.2295 101.64 55.8477 101.64 52.6C101.64 50.2708 101.195 48.3547 100.314 46.7685C99.438 45.1919 98.0603 43.8131 95.9862 42.6608C91.748 40.3062 84.754 38.98 73.94 38.98C63.4217 38.98 56.5434 40.2656 52.299 43.1684C48.2678 45.9253 46.24 50.4291 46.24 58.1V60.1H2.2V58.1C2.2 36.2608 10.737 21.5795 24.5478 12.4586C38.2207 3.42883 56.8299 0 76.8 0C95.4461 0 112.557 3.04384 125.079 10.0735C137.72 17.1699 145.68 28.35 145.68 44.24C145.68 62.9341 134.395 74.7806 122.074 80.3887C126.728 81.9072 131.795 84.3874 136.209 88.313C142.86 94.2281 147.88 103.301 147.88 116.84C147.88 134.877 139.422 147.117 126.227 154.735C113.169 162.274 95.5492 165.26 77.02 165.26C56.9441 165.26 37.7083 161.833 23.4432 152.01C9.04279 142.093 0 125.863 0 101V99H44.04ZM119.135 81.6031C117.792 81.2448 116.504 80.9683 115.3 80.76C116.539 80.406 117.783 79.9888 119.022 79.5076C131.64 74.6059 143.68 63.0715 143.68 44.24C143.68 14.1 113.76 2 76.8 2C37.8285 2 5.24919 15.2105 4.22483 56.1C4.20831 56.7595 4.2 57.4261 4.2 58.1H44.24C44.24 42.04 52.82 36.98 73.94 36.98C95.72 36.98 103.64 42.26 103.64 52.6C103.64 60.08 98.58 64.7 86.92 64.7H65.36V97.04H86.92C98.58 97.04 105.84 102.76 105.84 112C105.84 124.1 95.06 128.06 75.04 128.06C53.04 128.06 42.04 123.66 42.04 101H2C2 101.673 2.00675 102.34 2.02017 103C2.97588 149.995 37.7515 163.26 77.02 163.26C113.76 163.26 145.88 151.38 145.88 116.84C145.88 93.6112 130.556 84.65 119.135 81.6031Z" fill="url(#paint0_radial_3192_2730)"/>
<defs>
<radialGradient id="paint0_radial_3192_2730" cx="0" cy="0" r="1" gradientUnits="userSpaceOnUse" gradientTransform="translate(147.88 -1.91249e-05) rotate(131.823) scale(221.764 444.303)">
<stop stop-color="#00F0FF"/>
<stop offset="0.453125" stop-color="#BD00FF"/>
<stop offset="1" stop-color="#0500FF"/>
</radialGradient>
</defs>
</svg>
